/* XPM */
static char *ab04c4b032b143ccdfe1900d4acd8b160eJqpg8hUzA2cxNB[] = {
/* columns rows colors chars-per-pixel */
"64 64 7 1 ",
"  c #BF4830",
". c #C28569",
"X c #B9704F",
"o c #A54633",
"O c #D77643",
"+ c #B53E30",
"@ c #BE492F",
/* pixels */
"                ....                            XXXX            ",
"                ....                            XXXX            ",
"                ....                            XXXX            ",
"                ....                            XXXX            ",
"            oooo....        oooo                XXXX        oooo",
"            oooo....        oooo                XXXX        oooo",
"            oooo....        oooo                XXXX        oooo",
"            oooo....        oooo                XXXX        oooo",
"        oooo    ....                    oooo    ....            ",
"        oooo    ....                    oooo    ....            ",
"        oooo    ....                    oooo    ....            ",
"        oooo    ....                    oooo    ....            ",
"........OOOOOOOO........OOOOOOOOOOOO........OOOOOOOOOOOO........",
"........OOOOOOOO........OOOOOOOOOOOO........OOOOOOOOOOOO........",
"........OOOOOOOO........OOOOOOOOOOOO........OOOOOOOOOOOO........",
"........OOOOOOOO........OOOOOOOOOOOO........OOOOOOOOOOOO........",
"....                            ....++++                        ",
"....                            ....++++                        ",
"....                            ....++++                        ",
"....                            ....++++                        ",
"....                    ++++    ....                            ",
"....                    ++++    ....                            ",
"....                    ++++    ....                            ",
"....                    ++++    ....                            ",
"....        ++++            ooooOOOOoooooooooooo                ",
"....        ++++            ooooOOOOoooooooooooo                ",
"....        ++++            ooooOOOOoooooooooooo                ",
"....        ++++            ooooOOOOoooooooooooo                ",
"................OOOOOOOO....OOOOOOOOOOOO........................",
"................OOOOOOOO....OOOOOOOOOOOO........................",
"................OOOOOOOO....OOOOOOOOOOOO........................",
"................OOOOOOOO....OOOOOOOOOOOO........................",
"                ....oooo                    ++++....            ",
"                ....oooo                    ++++....            ",
"                ....oooo                    ++++....            ",
"                ....oooo                    ++++....            ",
"                ....@@@@                        ....            ",
"                ....@@@@                        ....            ",
"                ....@@@@                        ....            ",
"                ....@@@@                        ....            ",
"            ++++....                            ....++++        ",
"            ++++....                            ....++++        ",
"            ++++....                            ....++++        ",
"            ++++....                            ....++++        ",
"OOOOOOOOOOOO........OOOOOOOOOOOOOOOO....OOOO....................",
"OOOOOOOOOOOO........OOOOOOOOOOOOOOOO....OOOO....................",
"OOOOOOOOOOOO........OOOOOOOOOOOOOOOO....OOOO....................",
"OOOOOOOOOOOO........OOOOOOOOOOOOOOOO....OOOO....................",
"....oooooooo                    ....                            ",
"....oooooooo                    ....                            ",
"....oooooooo                    ....                            ",
"....oooooooo                    ....                            ",
"....oooo            oooo        ....++++                oooo    ",
"....oooo            oooo        ....++++                oooo    ",
"....oooo            oooo        ....++++                oooo    ",
"....oooo            oooo        ....++++                oooo    ",
"....oooooooo                    ....oooo                        ",
"....oooooooo                    ....oooo                        ",
"....oooooooo                    ....oooo                        ",
"....oooooooo                    ....oooo                        ",
"....OOOO........OOOO....OOOO....................................",
"....OOOO........OOOO....OOOO....................................",
"....OOOO........OOOO....OOOO....................................",
"....OOOO........OOOO....OOOO...................................."
};
