/* XPM */
static char *_c87e812d3894dbe82c3d1316b4eea91LtWqteZRGkvtb7si[] = {
/* columns rows colors chars-per-pixel */
"64 64 9 1 ",
"  c #6BB053",
". c #347646",
"X c #5C9651",
"o c #265C42",
"O c #51804E",
"+ c #2E1F2C",
"@ c #4D2D33",
"# c #966C4A",
"$ c #75483A",
/* pixels */
"                                                                ",
"                                                                ",
"                                                                ",
"                                                                ",
"....        ........XXXX    ........        XXXXXXXXXXXX    XXXX",
"....        ........XXXX    ........        XXXXXXXXXXXX    XXXX",
"....        ........XXXX    ........        XXXXXXXXXXXX    XXXX",
"....        ........XXXX    ........        XXXXXXXXXXXX    XXXX",
"ooooOOOO....oooo....XXXXXXXX....ooooXXXXXXXXoooo........XXXXXXXX",
"ooooOOOO....oooo....XXXXXXXX....ooooXXXXXXXXoooo........XXXXXXXX",
"ooooOOOO....oooo....XXXXXXXX....ooooXXXXXXXXoooo........XXXXXXXX",
"ooooOOOO....oooo....XXXXXXXX....ooooXXXXXXXXoooo........XXXXXXXX",
"++++........++++++++........ooooooooXXXX....++++................",
"++++........++++++++........ooooooooXXXX....++++................",
"++++........++++++++........ooooooooXXXX....++++................",
"++++........++++++++........ooooooooXXXX....++++................",
"++++....oooo++++@@@@oooo....oooo++++oooooooo++++ooooOOOO++++++++",
"++++....oooo++++@@@@oooo....oooo++++oooooooo++++ooooOOOO++++++++",
"++++....oooo++++@@@@oooo....oooo++++oooooooo++++ooooOOOO++++++++",
"++++....oooo++++@@@@oooo....oooo++++oooooooo++++ooooOOOO++++++++",
"++++oooo++++@@@@@@@@oooooooo++++++++oooooooo@@@@oooooooo@@@@@@@@",
"++++oooo++++@@@@@@@@oooooooo++++++++oooooooo@@@@oooooooo@@@@@@@@",
"++++oooo++++@@@@@@@@oooooooo++++++++oooooooo@@@@oooooooo@@@@@@@@",
"++++oooo++++@@@@@@@@oooooooo++++++++oooooooo@@@@oooooooo@@@@@@@@",
"++++++++++++@@@@########oooo++++@@@@oooo@@@@++++oooo@@@@@@@@++++",
"++++++++++++@@@@########oooo++++@@@@oooo@@@@++++oooo@@@@@@@@++++",
"++++++++++++@@@@########oooo++++@@@@oooo@@@@++++oooo@@@@@@@@++++",
"++++++++++++@@@@########oooo++++@@@@oooo@@@@++++oooo@@@@@@@@++++",
"####@@@@++++####$$$$$$$$####@@@@@@@@############++++++++++++####",
"####@@@@++++####$$$$$$$$####@@@@@@@@############++++++++++++####",
"####@@@@++++####$$$$$$$$####@@@@@@@@############++++++++++++####",
"####@@@@++++####$$$$$$$$####@@@@@@@@############++++++++++++####",
"$$$$####++++$$$$$$$$$$$$$$$$++++####$$$$$$$$$$$$####++++####$$$$",
"$$$$####++++$$$$$$$$$$$$$$$$++++####$$$$$$$$$$$$####++++####$$$$",
"$$$$####++++$$$$$$$$$$$$$$$$++++####$$$$$$$$$$$$####++++####$$$$",
"$$$$####++++$$$$$$$$$$$$$$$$++++####$$$$$$$$$$$$####++++####$$$$",
"$$$$$$$$++++@@@@$$$$$$$$$$$$@@@@$$$$$$$$$$$$$$$$$$$$@@@@$$$$$$$$",
"$$$$$$$$++++@@@@$$$$$$$$$$$$@@@@$$$$$$$$$$$$$$$$$$$$@@@@$$$$$$$$",
"$$$$$$$$++++@@@@$$$$$$$$$$$$@@@@$$$$$$$$$$$$$$$$$$$$@@@@$$$$$$$$",
"$$$$$$$$++++@@@@$$$$$$$$$$$$@@@@$$$$$$$$$$$$$$$$$$$$@@@@$$$$$$$$",
"@@@@########++++@@@@@@@@@@@@++++@@@@$$$$$$$$$$$$@@@@++++++++@@@@",
"@@@@########++++@@@@@@@@@@@@++++@@@@$$$$$$$$$$$$@@@@++++++++@@@@",
"@@@@########++++@@@@@@@@@@@@++++@@@@$$$$$$$$$$$$@@@@++++++++@@@@",
"@@@@########++++@@@@@@@@@@@@++++@@@@$$$$$$$$$$$$@@@@++++++++@@@@",
"####$$$$$$$$####++++++++########@@@@++++@@@@@@@@++++########++++",
"####$$$$$$$$####++++++++########@@@@++++@@@@@@@@++++########++++",
"####$$$$$$$$####++++++++########@@@@++++@@@@@@@@++++########++++",
"####$$$$$$$$####++++++++########@@@@++++@@@@@@@@++++########++++",
"@@@@$$$$$$$$@@@@@@@@####$$$$$$$$####++++++++++++####$$$$$$$$####",
"@@@@$$$$$$$$@@@@@@@@####$$$$$$$$####++++++++++++####$$$$$$$$####",
"@@@@$$$$$$$$@@@@@@@@####$$$$$$$$####++++++++++++####$$$$$$$$####",
"@@@@$$$$$$$$@@@@@@@@####$$$$$$$$####++++++++++++####$$$$$$$$####",
"@@@@@@@@@@@@++++@@@@$$$$$$$$$$$$$$$$++++########@@@@$$$$$$$$$$$$",
"@@@@@@@@@@@@++++@@@@$$$$$$$$$$$$$$$$++++########@@@@$$$$$$$$$$$$",
"@@@@@@@@@@@@++++@@@@$$$$$$$$$$$$$$$$++++########@@@@$$$$$$$$$$$$",
"@@@@@@@@@@@@++++@@@@$$$$$$$$$$$$$$$$++++########@@@@$$$$$$$$$$$$",
"@@@@########@@@@++++@@@@@@@@$$$$@@@@####$$$$$$$$####@@@@$$$$$$$$",
"@@@@########@@@@++++@@@@@@@@$$$$@@@@####$$$$$$$$####@@@@$$$$$$$$",
"@@@@########@@@@++++@@@@@@@@$$$$@@@@####$$$$$$$$####@@@@$$$$$$$$",
"@@@@########@@@@++++@@@@@@@@$$$$@@@@####$$$$$$$$####@@@@$$$$$$$$",
"####$$$$$$$$####++++########@@@@++++$$$$$$$$$$$$$$$$++++@@@@@@@@",
"####$$$$$$$$####++++########@@@@++++$$$$$$$$$$$$$$$$++++@@@@@@@@",
"####$$$$$$$$####++++########@@@@++++$$$$$$$$$$$$$$$$++++@@@@@@@@",
"####$$$$$$$$####++++########@@@@++++$$$$$$$$$$$$$$$$++++@@@@@@@@"
};
