/* XPM */
static char *_fdc3dab18a24276ff098e55c991ae0e0EConHxMa9x7EQmK[] = {
/* columns rows colors chars-per-pixel */
"64 64 7 1 ",
"  c #BE4A2F",
". c #CB542C",
"X c #B1ADA5",
"o c #B8432F",
"O c #A3432F",
"+ c #A9A49A",
"@ c #BAB7AF",
/* pixels */
"    ........XXXXoooo        oooooooo    ....XXXXoooo            ",
"    ........XXXXoooo        oooooooo    ....XXXXoooo            ",
"    ........XXXXoooo        oooooooo    ....XXXXoooo            ",
"    ........XXXXoooo        oooooooo    ....XXXXoooo            ",
"OOOO        XXXXOOOO                ....    XXXX    ........    ",
"OOOO        XXXXOOOO                ....    XXXX    ........    ",
"OOOO        XXXXOOOO                ....    XXXX    ........    ",
"OOOO        XXXXOOOO                ....    XXXX    ........    ",
"oooo    OOOOXXXX........    ooooooooOOOOOOOOXXXXOOOOOOOO    OOOO",
"oooo    OOOOXXXX........    ooooooooOOOOOOOOXXXXOOOOOOOO    OOOO",
"oooo    OOOOXXXX........    ooooooooOOOOOOOOXXXXOOOOOOOO    OOOO",
"oooo    OOOOXXXX........    ooooooooOOOOOOOOXXXXOOOOOOOO    OOOO",
"++++XXXX++++++++++++XXXX@@@@@@@@@@@@XXXX++++++++++++++++XXXXXXXX",
"++++XXXX++++++++++++XXXX@@@@@@@@@@@@XXXX++++++++++++++++XXXXXXXX",
"++++XXXX++++++++++++XXXX@@@@@@@@@@@@XXXX++++++++++++++++XXXXXXXX",
"++++XXXX++++++++++++XXXX@@@@@@@@@@@@XXXX++++++++++++++++XXXXXXXX",
"++++oooo        oooooooooooooooo++++    oooo    ....    ....    ",
"++++oooo        oooooooooooooooo++++    oooo    ....    ....    ",
"++++oooo        oooooooooooooooo++++    oooo    ....    ....    ",
"++++oooo        oooooooooooooooo++++    oooo    ....    ....    ",
"XXXXOOOO    oooooooooooo        ++++    OOOOoooooooooooo        ",
"XXXXOOOO    oooooooooooo        ++++    OOOOoooooooooooo        ",
"XXXXOOOO    oooooooooooo        ++++    OOOOoooooooooooo        ",
"XXXXOOOO    oooooooooooo        ++++    OOOOoooooooooooo        ",
"@@@@OOOOoooooooo....        OOOO++++    OOOOOOOO        ........",
"@@@@OOOOoooooooo....        OOOO++++    OOOOOOOO        ........",
"@@@@OOOOoooooooo....        OOOO++++    OOOOOOOO        ........",
"@@@@OOOOoooooooo....        OOOO++++    OOOOOOOO        ........",
"@@@@XXXXXXXXXXXXXXXXXXXXXXXXXXXXXXXX@@@@@@@@++++++++XXXXXXXXXXXX",
"@@@@XXXXXXXXXXXXXXXXXXXXXXXXXXXXXXXX@@@@@@@@++++++++XXXXXXXXXXXX",
"@@@@XXXXXXXXXXXXXXXXXXXXXXXXXXXXXXXX@@@@@@@@++++++++XXXXXXXXXXXX",
"@@@@XXXXXXXXXXXXXXXXXXXXXXXXXXXXXXXX@@@@@@@@++++++++XXXXXXXXXXXX",
"....        ++++    ....................    XXXXoooo    oooooooo",
"....        ++++    ....................    XXXXoooo    oooooooo",
"....        ++++    ....................    XXXXoooo    oooooooo",
"....        ++++    ....................    XXXXoooo    oooooooo",
"oooooooo    XXXXOOOO    oooooooooooo    OOOOXXXXoooo....    oooo",
"oooooooo    XXXXOOOO    oooooooooooo    OOOOXXXXoooo....    oooo",
"oooooooo    XXXXOOOO    oooooooooooo    OOOOXXXXoooo....    oooo",
"oooooooo    XXXXOOOO    oooooooooooo    OOOOXXXXoooo....    oooo",
"    OOOOOOOOXXXX....oooo            OOOOOOOO++++oooooooo........",
"    OOOOOOOOXXXX....oooo            OOOOOOOO++++oooooooo........",
"    OOOOOOOOXXXX....oooo            OOOOOOOO++++oooooooo........",
"    OOOOOOOOXXXX....oooo            OOOOOOOO++++oooooooo........",
"XXXX++++++++++++XXXX++++++++XXXXXXXXXXXX++++++++++++XXXXXXXXXXXX",
"XXXX++++++++++++XXXX++++++++XXXXXXXXXXXX++++++++++++XXXXXXXXXXXX",
"XXXX++++++++++++XXXX++++++++XXXXXXXXXXXX++++++++++++XXXXXXXXXXXX",
"XXXX++++++++++++XXXX++++++++XXXXXXXXXXXX++++++++++++XXXXXXXXXXXX",
"@@@@........oooooooooooooooo    XXXXoooo    ....            ....",
"@@@@........oooooooooooooooo    XXXXoooo    ....            ....",
"@@@@........oooooooooooooooo    XXXXoooo    ....            ....",
"@@@@........oooooooooooooooo    XXXXoooo    ....            ....",
"XXXXoooo    oooo            ....XXXXoooooooooooooooo........    ",
"XXXXoooo    oooo            ....XXXXoooooooooooooooo........    ",
"XXXXoooo    oooo            ....XXXXoooooooooooooooo........    ",
"XXXXoooo    oooo            ....XXXXoooooooooooooooo........    ",
"XXXXOOOOooooooooooooooooOOOOOOOOXXXXOOOOOOOOOOOOOOOOOOOO        ",
"XXXXOOOOooooooooooooooooOOOOOOOOXXXXOOOOOOOOOOOOOOOOOOOO        ",
"XXXXOOOOooooooooooooooooOOOOOOOOXXXXOOOOOOOOOOOOOOOOOOOO        ",
"XXXXOOOOooooooooooooooooOOOOOOOOXXXXOOOOOOOOOOOOOOOOOOOO        ",
"++++XXXXXXXXXXXXXXXX@@@@@@@@@@@@XXXXXXXXXXXXXXXX++++++++XXXXXXXX",
"++++XXXXXXXXXXXXXXXX@@@@@@@@@@@@XXXXXXXXXXXXXXXX++++++++XXXXXXXX",
"++++XXXXXXXXXXXXXXXX@@@@@@@@@@@@XXXXXXXXXXXXXXXX++++++++XXXXXXXX",
"++++XXXXXXXXXXXXXXXX@@@@@@@@@@@@XXXXXXXXXXXXXXXX++++++++XXXXXXXX"
};
